:SAMPLES-PER-SECOND 30
:FULLY-SPECIFIED
:DEGREES
830
root  2.10719 34.2276 -19.6505 -168.436 74.5939 -178.941
LeftUpLeg  -15.1687 15.9371 -6.32395
LeftLeg  8.99071 7.36225 0.68119
LeftFoot  0.229144 0.00940028 0.0646066
LeftToes  -6.41725 7.65994e-007 1.12379e-007
Spine  5.25288 -0.608915 -1.14406
Spine1  10.1542 -0.705176 -2.9449
RightShoulder  0.0691307 1.13858 0.0313117
RightArm  15.4877 -3.46249 75.3554
RightForeArm  141.158 66.408 155.716
RightHand  0.300572 -10.2885 -2.9659
LeftShoulder1  -0.0093507 -4.21626 0.349037
LeftArm  26.0173 17.5047 -62.1251
LeftForeArm  53.0813 -78.3628 -59.6954
LeftHand  0.402549 -5.53562 -8.69283
HEad  13.4923 -20.9525 4.90202
RightUpLeg  -22.2952 -4.55927 -4.49502
RightLeg  13.3201 8.40166 1.42334
RightFoot  9.94309 -0.102282 1.54967
RightToes  -30.7272 -0.14896 -0.256988
831
root  2.04615 34.2169 -19.6524 -169.72 75.2847 -179.881
LeftUpLeg  -14.8518 16.1015 -6.56049
LeftLeg  8.93667 7.94544 0.727366
LeftFoot  0.302971 0.00768803 0.0772147
LeftToes  -6.34128 7.65994e-007 1.12379e-007
Spine  5.17773 -0.82842 -1.13008
Spine1  10.0151 -1.15467 -2.91976
RightShoulder  0.0674792 1.22669 0.0590544
RightArm  16.2973 -4.35444 75.1984
RightForeArm  140.867 66.8318 155.19
RightHand  -0.097187 -10.0844 1.47053
LeftShoulder1  -0.0100532 -4.62393 0.283696
LeftArm  25.679 18.3995 -61.9499
LeftForeArm  52.2973 -78.3249 -59.3627
LeftHand  0.382728 -5.43889 -8.42507
HEad  13.4308 -20.767 4.34842
RightUpLeg  -22.1359 -4.07088 -4.82431
RightLeg  13.3435 8.44298 1.43381
RightFoot  9.86139 -0.100657 1.54333
RightToes  -30.9547 -0.151898 -0.259849
832
root  1.92959 34.2174 -19.6222 -170.734 75.8312 179.341
LeftUpLeg  -14.7768 16.3595 -6.79347
LeftLeg  8.84938 8.34726 0.751179
LeftFoot  0.52191 0.00471431 0.111183
LeftToes  -6.17787 7.65994e-007 1.12379e-007
Spine  5.16564 -1.1825 -1.06745
Spine1  10.0234 -1.88639 -2.799
RightShoulder  0.065815 1.25901 -0.173375
RightArm  18.0093 -5.4782 75.1801
RightForeArm  138.724 67.9679 153.678
RightHand  -0.62542 -9.82447 7.63222
LeftShoulder1  -0.0106777 -5.16622 0.516096
LeftArm  25.8283 19.3145 -61.9106
LeftForeArm  51.2866 -78.2367 -58.6172
LeftHand  0.369894 -5.76714 -7.71269
HEad  10.5344 -20.322 4.55009
RightUpLeg  -22.0971 -3.64532 -5.04069
RightLeg  13.2024 8.41965 1.40867
RightFoot  9.8467 -0.0984314 1.53202
RightToes  -30.8277 -0.155066 -0.262903
833
root  1.77224 34.2314 -19.5725 -171.543 76.159 178.755
LeftUpLeg  -15.3583 18.3003 -7.20869
LeftLeg  9.69537 6.88027 0.721904
LeftFoot  0.402063 0.00597829 0.0812365
LeftToes  -5.59044 7.65994e-007 1.12379e-007
Spine  5.18998 -1.6842 -1.00337
Spine1  10.1169 -2.91978 -2.6824
RightShoulder  0.0617075 1.28921 -0.622129
RightArm  19.9416 -6.67163 75.3984
RightForeArm  132.925 70.676 149.279
RightHand  -1.16416 -9.18046 14.7836
LeftShoulder1  -0.0114469 -5.23919 1.15385
LeftArm  26.6798 19.5606 -62.1257
LeftForeArm  49.0697 -77.976 -56.5663
LeftHand  0.365699 -5.90351 -7.4619
HEad  5.16073 -20.2799 5.08742
RightUpLeg  -22.2695 -4.13309 -4.8822
RightLeg  13.4835 8.21768 1.41638
RightFoot  9.66795 -0.0920035 1.46531
RightToes  -30.7985 -0.157605 -0.265335
834
root  1.59801 34.2712 -19.5323 -169.576 76.0268 -179.377
LeftUpLeg  -16.2033 20.4064 -7.23528
LeftLeg  10.1059 4.78254 0.536681
LeftFoot  0.434334 0.00655912 0.0640346
LeftToes  -5.40195 7.65994e-007 1.12379e-007
Spine  4.87458 -2.34574 -0.702373
Spine1  9.54683 -4.30288 -2.07999
RightShoulder  0.0563248 1.62032 -0.724067
RightArm  20.7099 -8.5035 74.7624
RightForeArm  120.073 74.3893 140.245
RightHand  -1.8336 -10.0941 20.8976
LeftShoulder1  -0.0124852 -5.21836 1.64982
LeftArm  27.2827 20.6489 -63.0821
LeftForeArm  42.497 -76.9842 -50.2245
LeftHand  0.359172 -6.09378 -7.11801
HEad  -0.21034 -20.6026 5.10538
RightUpLeg  -22.9107 -6.20334 -3.59362
RightLeg  14.5266 7.59341 1.45155
RightFoot  9.55283 -0.0801743 1.33693
RightToes  -31.3094 -0.158653 -0.266331
835
root  1.44878 34.3425 -19.5116 -166.027 75.9303 -176.392
LeftUpLeg  -16.8791 20.932 -6.94025
LeftLeg  9.4595 4.43822 0.447527
LeftFoot  0.773969 0.00503524 0.0818553
LeftToes  -5.99106 7.65994e-007 1.12379e-007
Spine  4.64504 -2.94441 -0.173957
Spine1  9.15166 -5.59432 -0.99152
RightShoulder  0.0477467 2.01415 -0.631346
RightArm  22.2469 -9.71621 72.568
RightForeArm  111.87 76.4222 132.356
RightHand  -1.70385 -9.46085 20.7305
LeftShoulder1  -0.013643 -5.10808 1.85326
LeftArm  27.1671 21.5302 -64.444
LeftForeArm  38.2517 -76.064 -45.7002
LeftHand  0.355149 -6.21604 -7.02174
HEad  -6.31588 -20.951 5.28686
RightUpLeg  -23.7697 -7.87143 -2.04124
RightLeg  15.9272 6.86702 1.48739
RightFoot  8.76868 -0.0561801 1.11019
RightToes  -31.9183 -0.157352 -0.265075
836
root  1.28873 34.409 -19.5181 -163.126 76.868 -173.888
LeftUpLeg  -17.0786 20.867 -6.66962
LeftLeg  8.45616 5.45898 0.454275
LeftFoot  1.28573 0.000936897 0.142185
LeftToes  -6.8753 7.65994e-007 1.12379e-007
Spine  4.56167 -3.06699 0.205507
Spine1  9.00438 -5.89659 -0.200525
RightShoulder  0.044609 2.34275 -0.578515
RightArm  24.0212 -10.7876 70.4983
RightForeArm  105.712 77.6591 125.388
RightHand  -1.7678 -9.0563 22.4017
LeftShoulder1  -0.0147707 -4.71109 2.00537
LeftArm  26.8221 22.0984 -65.5604
LeftForeArm  36.8519 -75.8132 -44.6224
LeftHand  0.365258 -6.02432 -7.39716
HEad  -11.5487 -20.6654 5.54436
RightUpLeg  -24.2032 -7.44175 -1.21049
RightLeg  17.3416 5.69426 1.3815
RightFoot  8.37845 -0.0371432 0.884571
RightToes  -30.8971 -0.150147 -0.258152
837
root  1.17099 34.4548 -19.551 -161.165 78.2664 -172.155
LeftUpLeg  -17.1252 21.1881 -6.68324
LeftLeg  7.73231 6.37254 0.449434
LeftFoot  1.6535 -0.00290341 0.20119
LeftToes  -7.67029 7.65994e-007 1.12379e-007
Spine  4.61731 -2.94929 0.410488
Spine1  9.14005 -5.7196 0.275732
RightShoulder  0.0388267 2.59171 -0.755934
RightArm  25.7351 -12.2129 69.4161
RightForeArm  95.2804 78.8909 114.828
RightHand  -1.86373 -8.91413 23.9268
LeftShoulder1  -0.0157187 -4.54194 2.00757
LeftArm  26.111 22.7431 -66.2967
LeftForeArm  35.9838 -75.8297 -44.685
LeftHand  0.374982 -5.82768 -7.73607
HEad  -16.0359 -20.6045 5.75449
RightUpLeg  -24.0627 -7.26823 -0.649456
RightLeg  18.4548 4.75105 1.25083
RightFoot  8.10759 -0.0238812 0.714456
RightToes  -30.1821 -0.145177 -0.253229
838
root  1.05077 34.4692 -19.5737 -160.003 79.5017 -171.31
LeftUpLeg  -17.4784 21.3309 -6.94332
LeftLeg  7.4074 7.25487 0.47029
LeftFoot  2.00053 -0.0070978 0.267948
LeftToes  -7.00209 7.65994e-007 1.12379e-007
Spine  4.84168 -2.80568 0.56166
Spine1  9.6204 -5.49484 0.646642
RightShoulder  0.0299095 2.7881 -1.17891
RightArm  26.1432 -13.8858 69.4834
RightForeArm  82.6956 79.6787 102.118
RightHand  -1.70119 -8.33196 23.3938
LeftShoulder1  -0.0163375 -4.4688 2.11041
LeftArm  24.9727 22.8707 -67.1434
LeftForeArm  33.9104 -75.497 -43.3336
LeftHand  0.397358 -5.60996 -8.47705
HEad  -19.3296 -20.4995 5.52519
RightUpLeg  -23.6542 -7.83274 -0.202451
RightLeg  18.6864 4.24392 1.13574
RightFoot  6.8356 -0.0102862 0.535129
RightToes  -29.3439 -0.139429 -0.24738
839
root  0.904384 34.4579 -19.5968 -159.552 80.6363 -171.326
LeftUpLeg  -18.4077 21.8985 -7.55992
LeftLeg  7.74957 7.60522 0.538363
LeftFoot  2.00395 -0.00762173 0.279147
LeftToes  -6.19054 7.65994e-007 1.12379e-007
Spine  5.11861 -2.63133 0.653823
Spine1  10.1898 -5.18174 0.866075
RightShoulder  0.0247796 2.85304 -1.46771
RightArm  24.9566 -15.4838 69.9561
RightForeArm  76.9801 79.8404 96.6645
RightHand  -1.65503 -8.26904 22.9518
LeftShoulder1  -0.0164773 -4.2402 2.02514
LeftArm  24.7766 22.3984 -67.3528
LeftForeArm  33.5261 -75.4063 -42.9819
LeftHand  0.412406 -5.44942 -9.03061
HEad  -21.8114 -20.6247 5.5272
RightUpLeg  -23.1995 -8.5679 0.0439697
RightLeg  17.7679 4.2543 1.06618
RightFoot  5.84467 -0.00301726 0.454791
RightToes  -28.2765 -0.132235 -0.239811
840
root  0.732517 34.4442 -19.6203 -159.734 81.8559 -172.111
LeftUpLeg  -19.6279 22.6063 -8.39439
LeftLeg  8.30532 7.78223 0.626453
LeftFoot  1.97297 -0.00752921 0.281943
LeftToes  -5.87304 7.65994e-007 1.12379e-007
Spine  5.45292 -2.45236 0.67662
Spine1  10.8561 -4.82993 0.908453
RightShoulder  0.0230489 2.68844 -1.89025
RightArm  23.7766 -16.1767 70.7113
RightForeArm  79.1352 79.8194 97.5154
RightHand  -1.67871 -8.30402 23.1723
LeftShoulder1  -0.0159887 -4.20857 2.12401
LeftArm  24.3693 22.1063 -67.4762
LeftForeArm  33.9699 -75.5742 -43.6365
LeftHand  0.419972 -5.20333 -9.60536
HEad  -22.9335 -20.0154 5.20618
RightUpLeg  -22.9208 -9.20376 0.113947
RightLeg  15.5916 5.26298 1.10898
RightFoot  5.82405 -0.00843314 0.553998
RightToes  -26.9514 -0.123501 -0.230229
841
root  0.547997 34.4405 -19.6534 -159.31 83.1145 -172.708
LeftUpLeg  -21.0843 22.942 -9.34721
LeftLeg  8.36134 8.40241 0.684335
LeftFoot  2.18666 -0.0106611 0.33572
LeftToes  -5.43274 7.65994e-007 1.12379e-007
Spine  5.72257 -2.32964 0.744427
Spine1  11.3932 -4.59753 1.0452
RightShoulder  0.0224153 2.97789 -2.22259
RightArm  23.217 -16.4752 71.0402
RightForeArm  76.8693 79.8832 93.7967
RightHand  -1.69173 -8.3989 23.091
LeftShoulder1  -0.014722 -3.99719 2.30767
LeftArm  23.6203 21.7783 -67.8842
LeftForeArm  32.5674 -75.5575 -43.561
LeftHand  0.307278 -3.65976 -9.98434
HEad  -23.3754 -19.8494 5.02288
RightUpLeg  -23.4669 -10.0534 0.331678
RightLeg  13.4621 7.19007 1.23752
RightFoot  7.0172 -0.0320426 0.90006
RightToes  -26.2099 -0.118712 -0.22478
842
root  0.347407 34.44 -19.6779 -157.577 84.4665 -172.136
LeftUpLeg  -22.7226 23.0635 -10.227
LeftLeg  8.35008 9.35149 0.759242
LeftFoot  2.59847 -0.0169781 0.439563
LeftToes  -4.6711 7.65994e-007 1.12379e-007
Spine  6.07779 -2.08015 0.814134
Spine1  12.1122 -4.13074 1.22427
RightShoulder  0.0229002 2.93909 -2.71142
RightArm  23.4692 -16.449 71.4783
RightForeArm  69.8264 79.8465 83.7176
RightHand  -1.50452 -7.97013 21.7
LeftShoulder1  -0.0125277 -3.82042 2.97569
LeftArm  23.3011 20.6734 -68.4654
LeftForeArm  31.1003 -75.3166 -42.626
LeftHand  0.205211 -2.40534 -10.1504
HEad  -23.3108 -19.3391 4.7639
RightUpLeg  -24.5076 -10.1847 0.528583
RightLeg  12.0319 8.73488 1.27914
RightFoot  8.03426 -0.0607373 1.24229
RightToes  -25.8749 -0.11629 -0.222298
